<svg width="188" height="105" viewBox="0 0 188 105" fill="none" xmlns="http://www.w3.org/2000/svg">
<g id="logo">
<g id="Group 3">
<g id="Group 2">
<g id="Group 1">
<path id="Line 1 (Stroke)" fill-rule="evenodd" clip-rule="evenodd" d="M141.481 45.099C142.925 45.099 144.095 46.2689 144.095 47.7121L144.095 52.9384C144.095 54.3816 142.925 55.5516 141.481 55.5516C140.038 55.5516 138.868 54.3816 138.868 52.9384L138.868 47.7121C138.868 46.2689 140.038 45.099 141.481 45.099Z" fill="#00D5E2"/>
<path id="Line 9 (Stroke)" fill-rule="evenodd" clip-rule="evenodd" d="M168.844 41.1793C170.287 41.1793 171.457 42.3492 171.457 43.7924L171.457 56.8581C171.457 58.3013 170.287 59.4713 168.844 59.4713C167.401 59.4713 166.231 58.3013 166.231 56.8581L166.231 43.7924C166.231 42.3492 167.401 41.1793 168.844 41.1793Z" fill="#00D5E2"/>
<path id="Line 2 (Stroke)" fill-rule="evenodd" clip-rule="evenodd" d="M159.723 32.5965C161.166 32.5965 162.336 33.7665 162.336 35.2097L162.336 64.6753C162.336 66.1185 161.166 67.2885 159.723 67.2885C158.28 67.2885 157.11 66.1185 157.11 64.6753L157.11 35.2097C157.11 33.7665 158.28 32.5965 159.723 32.5965Z" fill="#00D5E2"/>
<path id="Line 3 (Stroke)" fill-rule="evenodd" clip-rule="evenodd" d="M150.602 37.3272C152.046 37.3272 153.216 38.4972 153.216 39.9404L153.216 59.9446C153.216 61.3878 152.046 62.5577 150.602 62.5577C149.159 62.5577 147.989 61.3878 147.989 59.9446L147.989 39.9404C147.989 38.4972 149.159 37.3272 150.602 37.3272Z" fill="#00D5E2"/>
<path id="Line 6 (Stroke)" fill-rule="evenodd" clip-rule="evenodd" d="M132.335 39.2194C133.779 39.2194 134.949 40.3893 134.949 41.8325L134.949 58.8179C134.949 60.2612 133.779 61.4311 132.335 61.4311C130.892 61.4311 129.722 60.2611 129.722 58.8179L129.722 41.8325C129.722 40.3893 130.892 39.2194 132.335 39.2194Z" fill="#003BE5"/>
<path id="Line 7 (Stroke)" fill-rule="evenodd" clip-rule="evenodd" d="M177.965 39.2194C179.408 39.2194 180.578 40.3893 180.578 41.8325L180.578 58.8179C180.578 60.2612 179.408 61.4311 177.965 61.4311C176.522 61.4311 175.352 60.2611 175.352 58.8179L175.352 41.8325C175.352 40.3893 176.522 39.2194 177.965 39.2194Z" fill="#003BE5"/>
</g>
</g>
<path id="Ellipse 1 (Stroke)" fill-rule="evenodd" clip-rule="evenodd" d="M155.138 5.22629C140.313 5.22629 128.315 17.1868 128.315 31.9161V47.2628H131.921C133.364 47.2628 134.534 48.4327 134.534 49.8759C134.534 51.3191 133.364 52.4891 131.921 52.4891H127.36C125.001 52.4891 123.089 50.5766 123.089 48.2176V31.9161C123.089 14.2782 137.449 0 155.138 0C172.827 0 187.186 14.2782 187.186 31.9161V48.2176C187.186 50.5766 185.274 52.4891 182.915 52.4891H178.354C176.911 52.4891 175.741 51.3191 175.741 49.8759C175.741 48.4327 176.911 47.2628 178.354 47.2628H181.96V31.9161C181.96 17.1868 169.962 5.22629 155.138 5.22629Z" fill="#003BE5"/>
</g>
<g id="tunes">
<path d="M59.0477 104.785C58.4691 104.785 57.9043 104.729 57.3532 104.619C56.8022 104.523 56.2994 104.337 55.8448 104.061C55.4039 103.786 55.0526 103.4 54.7909 102.904C54.5292 102.408 54.3983 101.775 54.3983 101.003C54.3983 100.535 54.4534 100.004 54.5636 99.4119C54.6738 98.8196 54.8116 98.1445 54.9769 97.3868L57.4979 85.6083H52.1459L52.8071 82.5087H56.4027C56.8435 82.5087 57.1879 82.4811 57.4359 82.426C57.6839 82.3709 57.8767 82.2676 58.0145 82.1161C58.1523 81.9507 58.2694 81.7028 58.3658 81.3721C58.4622 81.0415 58.5655 80.6076 58.6758 80.0703L59.6883 75.2349H63.2219L61.6927 82.5087H68.5532L67.892 85.6083H61.0315L58.7584 96.2503C58.5793 97.132 58.4278 97.8759 58.3038 98.482C58.1936 99.0882 58.1385 99.5841 58.1385 99.9699C58.1385 100.521 58.2556 100.948 58.4898 101.251C58.7377 101.54 59.1579 101.685 59.7503 101.685C60.1498 101.685 60.57 101.651 61.0108 101.582C61.4516 101.513 61.7685 101.444 61.9613 101.375L61.3208 104.433C61.059 104.516 60.7422 104.592 60.3702 104.661C60.012 104.743 59.5712 104.785 59.0477 104.785Z" fill="#003BE5"/>
<path d="M76.6309 104.847C74.9778 104.847 73.6622 104.55 72.6841 103.958C71.706 103.352 71.0034 102.58 70.5764 101.644C70.1493 100.693 69.9358 99.7012 69.9358 98.668C69.9358 97.8828 70.0046 97.0769 70.1424 96.2503C70.2939 95.41 70.5212 94.2803 70.8243 92.8614L73.0354 82.5087H76.5689L74.4612 92.4068C74.1719 93.7431 73.9515 94.8383 73.8 95.6924C73.6484 96.5327 73.5727 97.2835 73.5727 97.9448C73.5727 99.0055 73.9033 99.8803 74.5645 100.569C75.2258 101.258 76.2934 101.602 77.7675 101.602C79.0349 101.602 80.2265 101.223 81.3424 100.466C82.472 99.6943 83.4294 98.7369 84.2147 97.5935C84.9999 96.4363 85.5096 95.286 85.7438 94.1426L87.8309 94.9898C87.5692 96.2021 87.1008 97.3937 86.4257 98.5647C85.7645 99.7219 84.931 100.776 83.9254 101.726C82.9335 102.677 81.8176 103.435 80.5778 103.999C79.3379 104.564 78.0223 104.847 76.6309 104.847ZM83.5328 104.454L88.2029 82.5087H91.7158L87.0457 104.454H83.5328Z" fill="#003BE5"/>
<path d="M108.73 104.454L111.023 93.9359C111.285 92.7512 111.478 91.8006 111.602 91.0843C111.74 90.3542 111.809 89.7067 111.809 89.1419C111.809 88.026 111.416 87.1443 110.631 86.4969C109.859 85.8494 108.688 85.5256 107.118 85.5256C105.947 85.5256 104.797 85.8287 103.667 86.4349C102.537 87.0272 101.566 87.8331 100.753 88.8526C99.9406 89.8582 99.3965 90.9879 99.1209 92.2415L97.0959 91.4769C97.3714 90.182 97.8811 88.9765 98.625 87.8607C99.3827 86.731 100.292 85.7461 101.353 84.9057C102.427 84.0516 103.584 83.3835 104.824 82.9013C106.064 82.4191 107.311 82.178 108.564 82.178C110.7 82.178 112.394 82.6878 113.648 83.7072C114.901 84.7128 115.528 86.1318 115.528 87.964C115.528 88.7217 115.439 89.5965 115.26 90.5883C115.081 91.5664 114.826 92.7925 114.495 94.2666L112.243 104.454H108.73ZM93.025 104.454L97.6951 82.5087H101.208L96.5379 104.454H93.025Z" fill="#003BE5"/>
<path d="M121.513 94.8865L122.174 91.7455H139.139L138.519 92.7787C138.602 92.4894 138.664 92.1933 138.705 91.8902C138.76 91.5871 138.788 91.1601 138.788 90.609C138.788 89.6171 138.574 88.7286 138.147 87.9433C137.72 87.1443 137.066 86.5175 136.184 86.0629C135.316 85.5945 134.201 85.3603 132.837 85.3603C131.349 85.3603 130.006 85.6221 128.807 86.1456C127.609 86.6553 126.575 87.3785 125.708 88.3153C124.853 89.2521 124.192 90.3473 123.724 91.6009C123.269 92.8545 123.042 94.2183 123.042 95.6924C123.042 96.9322 123.269 97.9999 123.724 98.8953C124.192 99.7908 124.895 100.48 125.832 100.962C126.782 101.43 127.974 101.664 129.406 101.664C130.619 101.664 131.673 101.547 132.568 101.313C133.477 101.065 134.242 100.741 134.862 100.342C135.496 99.9285 135.998 99.4808 136.37 98.9986C136.756 98.5165 137.025 98.0343 137.176 97.5522H140.73C140.538 98.4338 140.124 99.3086 139.491 100.177C138.857 101.044 138.03 101.837 137.011 102.553C135.991 103.255 134.8 103.82 133.436 104.247C132.072 104.674 130.557 104.888 128.89 104.888C126.947 104.888 125.287 104.509 123.91 103.751C122.532 102.98 121.478 101.912 120.748 100.548C120.018 99.1708 119.653 97.5728 119.653 95.7544C119.653 93.8257 119.997 92.0417 120.686 90.4024C121.389 88.7492 122.36 87.3096 123.6 86.0836C124.84 84.8437 126.279 83.8863 127.919 83.2113C129.558 82.5224 131.314 82.178 133.188 82.178C135.103 82.178 136.728 82.5638 138.065 83.3352C139.401 84.1067 140.42 85.1537 141.123 86.4762C141.826 87.7987 142.177 89.2934 142.177 90.9603C142.177 91.5527 142.115 92.2415 141.991 93.0267C141.867 93.7982 141.729 94.4181 141.578 94.8865H121.513Z" fill="#003BE5"/>
<path d="M153.665 104.867C152.48 104.867 151.385 104.743 150.379 104.495C149.373 104.247 148.499 103.896 147.755 103.441C147.011 102.973 146.432 102.415 146.019 101.768C145.606 101.12 145.399 100.397 145.399 99.5979C145.399 99.3224 145.426 99.0055 145.482 98.6474C145.55 98.2754 145.612 97.993 145.668 97.8001H149.201C149.16 97.9241 149.118 98.1032 149.077 98.3374C149.05 98.5716 149.036 98.7576 149.036 98.8953C149.036 99.8045 149.483 100.5 150.379 100.982C151.274 101.451 152.535 101.685 154.16 101.685C155.194 101.685 156.199 101.582 157.177 101.375C158.169 101.155 158.989 100.79 159.636 100.28C160.284 99.7701 160.608 99.0606 160.608 98.1514C160.608 97.2009 160.188 96.4983 159.347 96.0437C158.521 95.5891 157.157 95.2102 155.256 94.9071C153.906 94.6867 152.673 94.363 151.557 93.9359C150.455 93.4951 149.573 92.8958 148.912 92.1382C148.264 91.3667 147.941 90.3886 147.941 89.2038C147.941 88.0053 148.223 86.9652 148.788 86.0836C149.353 85.2019 150.11 84.4718 151.061 83.8932C152.025 83.3146 153.1 82.8875 154.284 82.612C155.483 82.3227 156.709 82.178 157.963 82.178C159.395 82.178 160.711 82.3985 161.91 82.8393C163.108 83.2801 164.065 83.9069 164.782 84.7197C165.498 85.5187 165.856 86.4624 165.856 87.5507C165.856 87.9365 165.836 88.2464 165.794 88.4806C165.767 88.7148 165.719 88.9421 165.65 89.1625H162.137C162.192 88.9697 162.226 88.8112 162.24 88.6872C162.254 88.5495 162.261 88.3911 162.261 88.212C162.261 87.5507 162.04 87.0135 161.6 86.6002C161.173 86.1731 160.608 85.8563 159.905 85.6496C159.203 85.443 158.431 85.3397 157.591 85.3397C156.599 85.3397 155.635 85.4568 154.698 85.6909C153.761 85.9114 152.99 86.2695 152.383 86.7655C151.777 87.2476 151.474 87.8745 151.474 88.6459C151.474 89.624 151.936 90.3404 152.859 90.795C153.782 91.2358 155.077 91.6216 156.743 91.9522C157.763 92.1588 158.72 92.3999 159.616 92.6754C160.511 92.9509 161.296 93.3022 161.972 93.7293C162.647 94.1564 163.17 94.6867 163.542 95.3204C163.928 95.9404 164.121 96.7049 164.121 97.6141C164.121 98.9229 163.824 100.039 163.232 100.962C162.64 101.885 161.841 102.636 160.835 103.214C159.843 103.779 158.727 104.192 157.487 104.454C156.248 104.729 154.973 104.867 153.665 104.867Z" fill="#003BE5"/>
</g>
<g id="trybe">
<path d="M8.96823 64.7914C8.22432 64.7914 7.47353 64.7363 6.71584 64.6261C5.97193 64.5159 5.28313 64.3092 4.64943 64.0062C4.01573 63.6893 3.50601 63.2347 3.12028 62.6423C2.73455 62.05 2.54169 61.2647 2.54169 60.2866C2.54169 59.7907 2.5899 59.2396 2.68634 58.6335C2.79655 58.0273 2.93431 57.3454 3.09962 56.5877L5.08338 47.3509H0L1.05387 42.3915H2.56235C3.37514 42.3915 4.03639 42.3502 4.54611 42.2675C5.05582 42.1711 5.45533 41.9782 5.74463 41.6889C6.0477 41.3858 6.29567 40.9243 6.48854 40.3044C6.69518 39.6845 6.90182 38.8441 7.10846 37.7834L7.64573 35.159H14.0723L12.5638 42.3915H18.9283L17.8745 47.3509H11.5099L9.81546 55.2446C9.66392 56.0298 9.53994 56.6566 9.44351 57.125C9.36085 57.5934 9.31952 57.9998 9.31952 58.3442C9.31952 58.8126 9.42284 59.1845 9.62948 59.4601C9.8499 59.7218 10.2425 59.8527 10.8073 59.8527C11.2619 59.8527 11.7166 59.8113 12.1712 59.7287C12.6258 59.646 12.9633 59.5634 13.1837 59.4807L12.1505 64.2955C11.8337 64.4194 11.3928 64.5297 10.828 64.6261C10.277 64.7363 9.65703 64.7914 8.96823 64.7914Z" fill="#00D5E2"/>
<path d="M18.1015 64.3368L22.7509 42.3915H29.1774L27.5656 49.9546L26.3464 49.128C26.7184 48.0948 27.2006 47.1442 27.7929 46.2763C28.3853 45.4084 29.0741 44.6577 29.8593 44.024C30.6584 43.3765 31.5331 42.8736 32.4837 42.5155C33.448 42.1573 34.4881 41.9782 35.604 41.9782C36.4994 41.9782 37.1744 42.0471 37.6291 42.1848C38.0974 42.3088 38.3867 42.4053 38.4969 42.4741L36.2032 48.2188C36.1068 48.1499 35.8588 48.0397 35.4593 47.8881C35.0598 47.7366 34.5225 47.6608 33.8475 47.6608C32.7454 47.6608 31.7811 47.8468 30.9545 48.2188C30.1417 48.5907 29.4461 49.0798 28.8675 49.6859C28.3026 50.2921 27.8411 50.9671 27.483 51.711C27.1248 52.4549 26.8699 53.2057 26.7184 53.9634L24.5073 64.3368H18.1015Z" fill="#00D5E2"/>
<path d="M37.0695 73.8216C36.3669 73.8216 35.7195 73.801 35.1271 73.7596C34.5347 73.7183 34.1834 73.6701 34.0732 73.615L35.1477 68.7176C35.3131 68.814 35.6092 68.8829 36.0363 68.9242C36.4496 68.9793 36.9111 69.0069 37.4208 69.0069C38.0958 69.0069 38.7226 68.8622 39.3012 68.5729C39.8936 68.2974 40.424 67.9117 40.8924 67.4157C41.3608 66.9336 41.774 66.3756 42.1322 65.7419L42.7315 64.6261L39.8798 42.3915H46.389L47.4222 60.3899H46.6163L55.006 42.3915H61.7838L49.3647 65.432C48.4279 67.1678 47.436 68.6625 46.389 69.9161C45.3558 71.1835 44.1022 72.1478 42.6282 72.8091C41.1541 73.4841 39.3012 73.8216 37.0695 73.8216Z" fill="#00D5E2"/>
<path d="M73.4264 64.8121C71.9386 64.8121 70.6023 64.4608 69.4176 63.7582C68.2328 63.0556 67.2961 62.0913 66.6073 60.8652C65.9322 59.6391 65.5947 58.234 65.5947 56.6497C65.5947 56.0574 65.6223 55.5476 65.6774 55.1206C65.7325 54.6935 65.8082 54.3285 65.9047 54.0254L68.591 53.9634C68.5497 54.1563 68.5152 54.3836 68.4877 54.6453C68.4601 54.8933 68.4464 55.1137 68.4464 55.3066C68.4464 56.1056 68.6323 56.8082 69.0043 57.4143C69.39 58.0067 69.8929 58.4682 70.5128 58.7988C71.1465 59.1157 71.8491 59.2741 72.6205 59.2741C73.6951 59.2741 74.6387 59.0743 75.4515 58.6748C76.2781 58.2753 76.9669 57.7243 77.5179 57.0217C78.0827 56.3191 78.5029 55.5063 78.7784 54.5833C79.0677 53.6603 79.2124 52.6753 79.2124 51.6284C79.2124 50.1543 78.8473 49.0729 78.1172 48.3841C77.387 47.6815 76.3952 47.3302 75.1415 47.3302C74.2874 47.3302 73.4195 47.5369 72.5379 47.9501C71.67 48.3496 70.9054 48.9213 70.2441 49.6653C69.5967 50.4092 69.1627 51.2977 68.9423 52.3309L66.1526 52.1656C66.5659 50.1819 67.3443 48.4323 68.4877 46.9169C69.6449 45.3878 71.0156 44.1893 72.5999 43.3214C74.1841 42.4397 75.8441 41.9989 77.5799 41.9989C80.0045 41.9989 81.9814 42.791 83.5105 44.3752C85.0534 45.9595 85.8249 48.205 85.8249 51.1117C85.8249 53.0404 85.5287 54.8382 84.9363 56.5051C84.344 58.1582 83.5036 59.6116 82.4153 60.8652C81.327 62.1051 80.0183 63.0763 78.4891 63.7789C76.9738 64.4677 75.2862 64.8121 73.4264 64.8121ZM59.9741 64.3368L66.8552 32.0388H73.2818L66.4006 64.3368H59.9741Z" fill="#00D5E2"/>
<path d="M91.7797 55.2859L92.6476 51.0498H107.195L106.472 52.1243C106.541 51.835 106.596 51.5664 106.637 51.3184C106.679 51.0566 106.699 50.7742 106.699 50.4712C106.699 49.8099 106.548 49.2038 106.245 48.6527C105.942 48.0879 105.459 47.6333 104.798 47.2889C104.151 46.9445 103.297 46.7723 102.236 46.7723C101.037 46.7723 99.9696 46.9927 99.0328 47.4335C98.0961 47.8744 97.3039 48.4943 96.6565 49.2933C96.0228 50.0785 95.5406 51.0015 95.21 52.0623C94.8793 53.1093 94.714 54.2458 94.714 55.4719C94.714 56.4087 94.8725 57.2146 95.1893 57.8896C95.5061 58.5646 96.0159 59.0812 96.7184 59.4394C97.4348 59.7976 98.3647 59.9767 99.5081 59.9767C100.39 59.9767 101.161 59.9009 101.822 59.7493C102.484 59.584 103.042 59.3774 103.496 59.1294C103.951 58.8815 104.309 58.6059 104.571 58.3029C104.846 57.9998 105.032 57.7036 105.129 57.4143H111.473C111.225 58.3373 110.763 59.2465 110.088 60.142C109.413 61.0236 108.538 61.8227 107.464 62.539C106.389 63.2416 105.129 63.7995 103.682 64.2128C102.236 64.6261 100.603 64.8327 98.7849 64.8327C96.622 64.8327 94.776 64.4332 93.2469 63.6342C91.7315 62.8352 90.5743 61.7331 89.7753 60.3279C88.9763 58.909 88.5768 57.2765 88.5768 55.4305C88.5768 53.4881 88.935 51.6972 89.6513 50.0579C90.3814 48.4185 91.3871 46.9927 92.6683 45.7804C93.9632 44.5681 95.4648 43.6313 97.173 42.9701C98.8813 42.3088 100.72 41.9782 102.69 41.9782C104.812 41.9782 106.63 42.3639 108.146 43.1354C109.661 43.8931 110.818 44.9538 111.617 46.3177C112.43 47.6815 112.836 49.2795 112.836 51.1117C112.836 51.7454 112.774 52.4618 112.65 53.2608C112.527 54.0598 112.368 54.7349 112.175 55.2859H91.7797Z" fill="#00D5E2"/>
</g>
</g>
</svg>
